Coordinates
version=1
nRows=27
nColumns=12
inDegrees=yes

Units are S.I. units (second, meters, Newtons, ...)
Angles are in degrees

endheader
time	SC_y	SC_z	SC_x	AC_y	AC_z	AC_x	GH_y	GH_z	GH_yy	EL_x	PS_y
       0.0              -22.84          12.97          7.483          39.69         -7.868          5.275         -93.29          65.25          47.46          138.1          10.09
   0.01785              -22.84          12.97          7.487          39.69         -7.868          5.274         -93.28          65.24          47.43          138.1          10.11
   0.03569              -22.84          12.97          7.492          39.69         -7.868          5.273         -93.28          65.24          47.41          138.1          10.13
   0.05354              -22.84          12.98          7.497          39.69         -7.868          5.273         -93.27          65.23          47.38          138.1          10.15
   0.07139              -22.84          12.98          7.502           39.7         -7.868          5.272         -93.26          65.22          47.35          138.0          10.17
   0.08923              -22.84          12.98          7.508           39.7         -7.868          5.271         -93.26          65.21          47.32          138.0           10.2
    0.1071              -22.84          12.98          7.514           39.7         -7.868           5.27         -93.25           65.2          47.29          138.0          10.22
    0.1249              -22.84          12.98           7.52          39.71         -7.869          5.269         -93.24          65.19          47.25          138.0          10.25
    0.1428              -22.85          12.99          7.527          39.71         -7.869          5.267         -93.23          65.18          47.22          138.0          10.28
    0.1606              -22.85          12.99          7.535          39.71         -7.869          5.266         -93.22          65.17          47.18          138.0          10.32
    0.1785              -22.85          12.99          7.543          39.72         -7.869          5.265         -93.21          65.15          47.13          138.0          10.35
    0.1963              -22.85           13.0          7.551          39.72         -7.869          5.263          -93.2          65.14          47.09          138.0          10.39
    0.2142              -22.85           13.0          7.561          39.73         -7.869          5.262         -93.19          65.13          47.04          138.0          10.43
     0.232              -22.86           13.0          7.571          39.73         -7.869           5.26         -93.18          65.11          46.98          138.0          10.48
    0.2498              -22.86          13.01          7.581          39.74         -7.869          5.258         -93.16          65.09          46.93          138.0          10.53
    0.2677              -22.86          13.01          7.593          39.74          -7.87          5.256         -93.15          65.07          46.86          138.0          10.58
    0.2855              -22.86          13.02          7.606          39.75          -7.87          5.254         -93.13          65.05          46.79          138.0          10.63
    0.3034              -22.87          13.02           7.62          39.76          -7.87          5.252         -93.11          65.03          46.72          137.9           10.7
    0.3212              -22.87          13.03          7.635          39.77          -7.87          5.249         -93.09          65.01          46.64          137.9          10.76
    0.3391              -22.88          13.04          7.652          39.77          -7.87          5.246         -93.07          64.98          46.55          137.9          10.84
    0.3569              -22.88          13.04           7.67          39.78         -7.871          5.243         -93.05          64.95          46.45          137.9          10.92
    0.3748              -22.89          13.05           7.69          39.79         -7.871           5.24         -93.02          64.92          46.34          137.9          11.01
    0.3926              -22.89          13.06          7.712          39.81         -7.871          5.236         -92.99          64.89          46.22          137.9          11.11
    0.4105               -22.9          13.07          7.737          39.82         -7.872          5.232         -92.96          64.85          46.09          137.8          11.22
    0.4283               -22.9          13.08          7.764          39.83         -7.872          5.227         -92.93           64.8          45.94          137.8          11.34
    0.4462              -22.91          13.09          7.795          39.85         -7.872          5.222         -92.89          64.75          45.78          137.8          11.48
     0.464              -22.92           13.1          7.829          39.87         -7.873          5.217         -92.85           64.7          45.59          137.7          11.63
